<svg width="57" height="56" viewBox="0 0 57 56" fill="none" xmlns="http://www.w3.org/2000/svg">
<g id="Frame 294">
<rect x="0.5" width="56" height="56" rx="28" fill="#5A6475"/>
<path id="Icons" d="M42.5 28C42.5 35.732 36.232 42 28.5 42M42.5 28C42.5 20.268 36.232 14 28.5 14M42.5 28H14.5M28.5 42C20.768 42 14.5 35.732 14.5 28M28.5 42C32.0018 38.1663 33.9919 33.1912 34.1 28C33.9919 22.8088 32.0018 17.8337 28.5 14M28.5 42C24.9982 38.1663 23.0081 33.1912 22.9 28C23.0081 22.8088 24.9982 17.8337 28.5 14M14.5 28C14.5 20.268 20.768 14 28.5 14" stroke="#FDFDFE" stroke-width="2" stroke-linecap="round" stroke-linejoin="round"/>
</g>
</svg>
