<?xml version="1.0" encoding="utf-8"?>
<!-- Generator: Adobe Illustrator 27.7.0, SVG Export Plug-In . SVG Version: 6.00 Build 0)  -->
<svg version="1.1" id="Layer_1" xmlns="http://www.w3.org/2000/svg" xmlns:xlink="http://www.w3.org/1999/xlink" x="0px" y="0px"
	 viewBox="0 0 1024 680" style="enable-background:new 0 0 1024 680;" xml:space="preserve">
<style type="text/css">
	.st0{fill:#4D4D4F;stroke:#333333;stroke-miterlimit:10;}
	.st1{fill:#F7941F;stroke:#CC6600;stroke-miterlimit:10;}
	.st2{fill:#F7941F;stroke:#F68603;stroke-miterlimit:10;}
</style>
<g>
	<path class="st0" d="M596.8,513.8c11.4-5.1,22.7-10.4,33.6-15.8c-21.3,11.4-43.4,22.4-66.3,32.6C315.4,641.9,69.7,634,15.6,512.9
		C4.2,487.4,2.2,459,8.4,429h43.2c-4.3,25.9-2,50.4,8,72.5C111.6,617.7,352.1,623.2,596.8,513.8z"/>
	<path class="st0" d="M145.4,269.6h-40.7c63.8-65.8,155-128.9,263.4-177.5c128-57.3,255.1-83,355.8-77.9
		c-92.5,2.4-203.6,28.3-315.5,78.5C299.9,141.2,208.7,204.3,145.4,269.6z"/>
	<path class="st1" d="M811.8,429H888c-63,59.9-146.2,116-244.4,161.1c-220.7,101.2-438.5,108.7-534,25
		c96.9,61.3,288,49.2,481.4-42.4C678.9,531.1,754.1,481.6,811.8,429z"/>
	<path class="st1" d="M1002.6,269.6H926c14.5-42.2,15.8-83.8,1.5-122.7c-33.2-82-175.4-154-414-55.4c-6.2,2.5-12.2,5.9-18.2,8.9
		c19-10.3,38.7-20.1,59.1-29.4c154.9-71.1,409.9-70.3,456.4,67.6C1024.3,178.3,1020.8,223.2,1002.6,269.6z"/>
	<g>
		<path class="st2" d="M12,417.4V273.5h51.4c12.9,0,22.2,1.3,28.1,3.9c5.9,2.5,10.5,7.1,14.1,13.8c3.6,6.6,5.3,14.2,5.3,22.7
			c0,10.8-2.7,19.7-8,26.7c-5.3,7-13.3,11.5-23.9,13.3c5.3,3.7,9.7,7.7,13,12.1c3.5,4.4,8.1,12.2,13.8,23.4l14.7,28.1H91.4
			l-17.6-31.3C67.5,375,63.2,368,60.9,365c-2.3-2.9-4.7-5-7.4-6c-2.5-1-6.7-1.6-12.3-1.6h-5v60H12z M36.3,334.5h18.1
			c11.8,0,19-0.6,21.9-1.7c2.9-1.2,5.2-3.2,6.8-6.1c1.6-2.9,2.4-6.5,2.4-10.8c0-4.8-1-8.8-3.2-11.8c-2.2-3-5.2-4.8-9.2-5.6
			c-2-0.3-8-0.5-17.7-0.5h-19V334.5z"/>
		<path class="st2" d="M151,351.6l-21.7-4.1c2.4-9.2,6.6-15.9,12.6-20.4c6-4.4,14.7-6.6,26.5-6.6c10.6,0,18.6,1.3,23.7,3.9
			c5.2,2.7,8.9,6,10.9,10.1c2.1,4,3.2,11.5,3.2,22.5l-0.2,29.3c0,8.3,0.3,14.5,1.2,18.4c0.8,3.9,2.2,8.2,4.3,12.7h-23.6
			c-0.6-1.6-1.4-4.1-2.3-7.4c-0.3-1.5-0.7-2.4-0.8-3c-4,4.1-8.4,7.3-13,9.3c-4.6,2.1-9.6,3.1-14.9,3.1c-9.3,0-16.6-2.7-21.9-8
			c-5.3-5.3-8.1-12-8.1-20.1c0-5.3,1.3-10.1,3.7-14.3c2.4-4.1,5.9-7.4,10.3-9.7c4.4-2.2,10.7-4.1,19-5.9c11.2-2.2,18.9-4.3,23.2-6.1
			V353c0-4.8-1.2-8.3-3.3-10.3c-2.3-2.1-6.6-3.1-12.8-3.1c-4.3,0-7.6,0.9-9.9,2.7C154.3,344.2,152.4,347.3,151,351.6z M182.9,371.9
			c-3.1,1-7.8,2.3-14.5,3.8c-6.6,1.5-10.9,3-13,4.4c-3.1,2.3-4.7,5.3-4.7,8.9c0,3.5,1.3,6.6,3.7,9.1c2.5,2.5,5.6,3.8,9.4,3.8
			c4.3,0,8.4-1.5,12.3-4.5c2.9-2.3,4.7-5.1,5.6-8.3c0.6-2.2,0.9-6.2,0.9-12.2v-5H182.9z"/>
		<path class="st2" d="M364.5,417.4h-23.9V369c0-10.3-0.5-16.8-1.5-19.8c-1-3-2.7-5.3-5-7c-2.3-1.6-5.1-2.5-8.3-2.5
			c-4.1,0-7.8,1.2-11.1,3.6c-3.2,2.4-5.5,5.5-6.8,9.4c-1.3,3.9-1.8,11.2-1.8,21.8v43h-23.9v-94.8h22.1v13.9
			c7.8-10.7,17.7-16,29.7-16c5.3,0,10,1,14.4,3c4.4,2,7.6,4.5,9.9,7.6c2.2,3.1,3.8,6.6,4.7,10.5c0.9,3.9,1.3,9.6,1.3,16.8V417.4z"/>
		<path class="st2" d="M400.5,351.6l-21.7-4.1c2.4-9.2,6.6-15.9,12.6-20.4c6-4.4,14.7-6.6,26.5-6.6c10.6,0,18.6,1.3,23.7,3.9
			c5.2,2.7,8.9,6,10.9,10.1c2.1,4,3.2,11.5,3.2,22.5l-0.2,29.3c0,8.3,0.3,14.5,1.2,18.4c0.8,3.9,2.2,8.2,4.3,12.7h-23.6
			c-0.6-1.6-1.4-4.1-2.3-7.4c-0.3-1.5-0.7-2.4-0.8-3c-4,4.1-8.4,7.3-13,9.3c-4.6,2.1-9.6,3.1-14.9,3.1c-9.3,0-16.6-2.7-21.9-8
			c-5.3-5.3-8.1-12-8.1-20.1c0-5.3,1.3-10.1,3.7-14.3c2.4-4.1,5.9-7.4,10.3-9.7c4.4-2.2,10.7-4.1,19-5.9c11.2-2.2,18.9-4.3,23.2-6.1
			V353c0-4.8-1.2-8.3-3.3-10.3c-2.3-2.1-6.6-3.1-12.8-3.1c-4.3,0-7.6,0.9-9.9,2.7C403.9,344.2,402,347.3,400.5,351.6z M432.4,371.9
			c-3.1,1-7.8,2.3-14.5,3.8c-6.6,1.5-10.9,3-13,4.4c-3.1,2.3-4.7,5.3-4.7,8.9c0,3.5,1.3,6.6,3.7,9.1c2.5,2.5,5.6,3.8,9.4,3.8
			c4.3,0,8.4-1.5,12.3-4.5c2.9-2.3,4.7-5.1,5.6-8.3c0.6-2.2,0.9-6.2,0.9-12.2v-5H432.4z"/>
		<path class="st0" d="M573.7,364.5v-24.2h54.2v57.4c-5.3,5.9-12.9,11.1-22.8,15.6c-10,4.5-20.1,6.7-30.3,6.7c-13,0-24.3-3.1-34-9.4
			c-9.7-6.3-16.9-15.3-21.8-27.1c-4.8-11.8-7.3-24.5-7.3-38.4c0-15,2.8-28.3,8.2-40c5.4-11.6,13.4-20.6,23.9-26.8
			c8-4.7,17.9-7.1,29.8-7.1c15.4,0,27.5,3.8,36.2,11.3c8.6,7.5,14.3,17.9,16.7,31.1l-25,5.4c-1.7-7-5.1-12.7-9.9-16.7
			c-4.8-4-10.8-6.1-18.1-6.1c-10.9,0-19.7,4-26.2,12.1c-6.5,8.1-9.7,20.1-9.7,35.8c0,17.1,3.2,29.8,9.8,38.5
			c6.6,8.5,15.2,12.8,25.8,12.8c5.3,0,10.5-1.2,15.8-3.6c5.3-2.4,9.8-5.3,13.6-8.6v-18.2h-28.9V364.5z"/>
		<path class="st0" d="M649.8,417.4V286.6h23.9v130.8H649.8z"/>
		<path class="st0" d="M684.7,368.7c0-8.3,2-16.4,5.9-24.2c3.9-7.8,9.4-13.7,16.6-17.9c7.1-4.1,15.1-6.1,24-6.1
			c13.6,0,24.8,4.6,33.5,13.9s13,21.1,13,35.3c0,14.3-4.4,26.3-13.3,35.6c-8.8,9.4-19.8,14.2-33.2,14.2c-8.3,0-16.1-2-23.6-5.9
			s-13.3-9.7-17.1-17.3C686.7,388.9,684.7,379.6,684.7,368.7z M709.2,370.1c0,9.4,2.1,16.6,6.3,21.5s9.4,7.5,15.7,7.5
			c6.2,0,11.4-2.5,15.7-7.5c4.3-5,6.3-12.2,6.3-21.8c0-9.3-2.1-16.5-6.3-21.4c-4.3-5-9.4-7.5-15.7-7.5c-6.2,0-11.4,2.5-15.7,7.5
			C711.4,353.5,709.2,360.7,709.2,370.1z"/>
		<path class="st0" d="M787.6,417.4V286.6h23.9v47.1c7.4-8.8,16-13.3,26.2-13.3c10.9,0,20.1,4.1,27.2,12.6s10.8,20.4,10.8,36.1
			c0,16.1-3.7,28.7-10.9,37.5c-7.4,8.8-16.2,13.1-26.7,13.1c-5.2,0-10.3-1.4-15.2-4s-9.3-6.7-12.9-12v13.9h-22.2V417.4z M811.3,368
			c0,9.8,1.5,17.1,4.4,21.8c4.1,6.7,9.6,10,16.5,10c5.3,0,9.8-2.4,13.5-7.1c3.7-4.7,5.5-12.2,5.5-22.4c0-10.8-1.8-18.7-5.6-23.4
			c-3.7-4.8-8.5-7.1-14.3-7.1s-10.5,2.3-14.3,7C813.1,351.4,811.3,358.6,811.3,368z"/>
		<path class="st0" d="M904.7,351.6l-21.7-4.1c2.4-9.2,6.6-15.9,12.6-20.4c6-4.4,14.7-6.6,26.5-6.6c10.6,0,18.6,1.3,23.7,3.9
			c5.2,2.7,8.9,6,10.9,10.1c2.1,4,3.2,11.5,3.2,22.5l-0.2,29.3c0,8.3,0.3,14.5,1.2,18.4s2.2,8.2,4.3,12.7h-23.6
			c-0.6-1.6-1.4-4.1-2.3-7.4c-0.3-1.5-0.7-2.4-0.8-3c-4,4.1-8.4,7.3-13,9.3c-4.6,2.1-9.6,3.1-14.9,3.1c-9.3,0-16.6-2.7-21.9-8
			s-8.1-12-8.1-20.1c0-5.3,1.3-10.1,3.7-14.3c2.4-4.1,5.9-7.4,10.3-9.7c4.4-2.2,10.7-4.1,19-5.9c11.2-2.2,18.9-4.3,23.2-6.1V353
			c0-4.8-1.2-8.3-3.3-10.3c-2.3-2.1-6.6-3.1-12.8-3.1c-4.3,0-7.6,0.9-9.9,2.7C908.2,344.2,906.2,347.3,904.7,351.6z M936.6,371.9
			c-3.1,1-7.8,2.3-14.5,3.8c-6.6,1.5-10.9,3-13,4.4c-3.1,2.3-4.7,5.3-4.7,8.9c0,3.5,1.3,6.6,3.7,9.1c2.5,2.5,5.6,3.8,9.4,3.8
			c4.3,0,8.4-1.5,12.3-4.5c2.9-2.3,4.7-5.1,5.6-8.3c0.6-2.2,0.9-6.2,0.9-12.2v-5H936.6z"/>
		<path class="st0" d="M975.8,417.4V286.6h23.9v130.8H975.8z"/>
		<path class="st2" d="M260.6,398.9c-1.6,0-2.9-0.5-4-1.3c-1.2-0.8-1.8-1.8-2.1-3.1c-0.3-1.3-0.5-5.8-0.5-13.5v-38.1h16.2v-19.9H254
			v-25.7h-24v25.7h-10.9v19.9H230v41.4c0,8.9,0.2,14.7,0.8,17.6c0.6,4.1,1.7,7.4,3.3,9.8c1.6,2.4,4.1,4.4,7.6,5.9
			c3.5,1.5,7.4,2.3,11.6,2.3c7,0,13.3-1.3,18.9-3.8l-2.1-19.5C266,398.1,262.8,398.9,260.6,398.9z"/>
	</g>
</g>
</svg>
