<svg
                              width="12"
                              height="24"
                              viewBox="0 0 12 16"
                              fill="none"
                              xmlns="http://www.w3.org/2000/svg"
                            >
                              <path
                                d="M7.86675 16L1.77786 9.68889V8.22222H4.66675C5.51119 8.22222 6.25193 7.94815 6.88897 7.4C7.52601 6.85185 7.89638 6.08889 8.00008 5.11111H0.666748V3.77778H7.88897C7.69638 3.06667 7.30008 2.48148 6.70008 2.02222C6.10008 1.56296 5.4223 1.33333 4.66675 1.33333H0.666748V0H11.3334V1.33333H7.91119C8.25193 1.62963 8.54082 2.00741 8.77786 2.46667C9.0149 2.92593 9.18527 3.36296 9.28897 3.77778H11.3334V5.11111H9.33342C9.2149 6.45926 8.7149 7.53704 7.83342 8.34444C6.95193 9.15185 5.89638 9.55556 4.66675 9.55556H3.51119L9.71119 16H7.86675Z"
                                fill="#5A6475"
                              />
                            </svg>